<svg width="42" height="42" viewBox="0 0 42 42" fill="none" xmlns="http://www.w3.org/2000/svg">
<path d="M42 21C42 9.41719 32.5828 -4.11638e-07 21 -9.17939e-07C9.41719 -1.42424e-06 2.09176e-06 9.41719 1.58546e-06 21C1.07916e-06 32.5828 9.41719 42 21 42C32.5828 42 42 32.5828 42 21ZM1.74727 21C1.74727 10.3852 10.3852 1.74726 21 1.74726C31.6148 1.74727 40.2527 10.3852 40.2527 21C40.2527 31.6148 31.6148 40.2527 21 40.2527C10.3852 40.2527 1.74727 31.6148 1.74727 21Z" fill="#64503E"/>
<path d="M29.6313 29.6545C29.9677 29.318 29.9677 28.7728 29.6313 28.4363L13.5466 12.3516C13.2101 12.0152 12.6649 12.0152 12.3284 12.3516C11.992 12.688 11.992 13.2333 12.3284 13.5697L28.4132 29.6545C28.7496 29.9909 29.2949 29.9909 29.6313 29.6545Z" fill="#64503E"/>
<path d="M12.3282 29.6485C12.6646 29.9849 13.2098 29.9849 13.5463 29.6485L29.631 13.5637C29.9674 13.2273 29.9674 12.682 29.631 12.3456C29.2946 12.0092 28.7493 12.0092 28.4129 12.3456L12.3282 28.4304C11.9918 28.7668 11.9917 29.312 12.3282 29.6485Z" fill="#64503E"/>
</svg>
