<svg width="42" height="42" viewBox="0 0 42 42" fill="none" xmlns="http://www.w3.org/2000/svg">
<path d="M42 21C42 9.4208 32.5792 -4.11796e-07 21 -9.17939e-07C9.4208 -1.42408e-06 -4.11796e-07 9.42079 -9.17939e-07 21C-1.42408e-06 32.5792 9.42079 42 21 42C32.5792 42 42 32.5792 42 21ZM1.74997 21C1.74997 10.3855 10.3855 1.74997 21 1.74997C31.6145 1.74997 40.25 10.3855 40.25 21C40.25 31.6145 31.6145 40.25 21 40.25C10.3855 40.25 1.74997 31.6145 1.74997 21Z" fill="#525252"/>
<path d="M32.9936 21.6186C33.3355 21.2768 33.3355 20.7231 32.9936 20.3814L25.1186 12.5064C24.7768 12.1645 24.2231 12.1645 23.8814 12.5064C23.5395 12.8482 23.5395 13.4019 23.8814 13.7436L30.2627 20.125L9.62505 20.125C9.1414 20.125 8.75003 20.5164 8.75003 21C8.75003 21.4837 9.1414 21.8751 9.62505 21.8751L30.2627 21.8751L23.8814 28.2564C23.7105 28.4273 23.625 28.6513 23.625 28.8751C23.625 29.099 23.7105 29.3229 23.8814 29.4938C24.2232 29.8356 24.7769 29.8356 25.1186 29.4938L32.9936 21.6186Z" fill="#525252"/>
</svg>
