<svg width="42" height="42" viewBox="0 0 42 42" fill="none" xmlns="http://www.w3.org/2000/svg">
<path d="M-9.17939e-07 21C-4.11796e-07 32.5792 9.4208 42 21 42C32.5792 42 42 32.5792 42 21C42 9.42079 32.5792 -1.42408e-06 21 -9.17939e-07C9.42079 -4.11796e-07 -1.42408e-06 9.4208 -9.17939e-07 21ZM40.25 21C40.25 31.6145 31.6145 40.25 21 40.25C10.3855 40.25 1.74997 31.6145 1.74997 21C1.74997 10.3855 10.3855 1.74997 21 1.74997C31.6145 1.74997 40.25 10.3855 40.25 21Z" fill="#525252"/>
<path d="M9.00637 20.3814C8.66454 20.7232 8.66454 21.2769 9.00637 21.6186L16.8814 29.4936C17.2232 29.8355 17.7769 29.8355 18.1186 29.4936C18.4605 29.1518 18.4605 28.5981 18.1186 28.2564L11.7373 21.875L32.3749 21.875C32.8586 21.875 33.25 21.4836 33.25 21C33.25 20.5163 32.8586 20.1249 32.3749 20.1249L11.7373 20.1249L18.1186 13.7436C18.2895 13.5727 18.375 13.3487 18.375 13.1249C18.375 12.901 18.2895 12.6771 18.1186 12.5062C17.7768 12.1644 17.2231 12.1644 16.8814 12.5062L9.00637 20.3814Z" fill="#525252"/>
</svg>
