<svg width="42" height="30" viewBox="0 0 42 30" fill="none" xmlns="http://www.w3.org/2000/svg">
<path d="M41.5605 16.0606C42.1465 15.4746 42.1465 14.5253 41.5605 13.9395L28.0605 0.439488C27.4745 -0.146497 26.5253 -0.146497 25.9394 0.439488C25.3535 1.02547 25.3535 1.97469 25.9394 2.56054L36.879 13.5001L1.50005 13.5C0.670925 13.5 -6.19433e-07 14.171 -6.55675e-07 15.0001C-6.91917e-07 15.8292 0.670924 16.5001 1.50005 16.5001L36.879 16.5001L25.9394 27.4397C25.6465 27.7326 25.5 28.1165 25.5 28.5003C25.5 28.884 25.6465 29.2678 25.9394 29.5608C26.5254 30.1468 27.4746 30.1468 28.0605 29.5608L41.5605 16.0606Z" fill="#64503E"/>
</svg>
