<svg width="42" height="30" viewBox="0 0 42 30" fill="none" xmlns="http://www.w3.org/2000/svg">
<path d="M0.439489 13.9398C-0.146496 14.5258 -0.146496 15.475 0.439489 16.0609L13.9395 29.5609C14.5255 30.1469 15.4747 30.1469 16.0606 29.5609C16.6465 28.9749 16.6465 28.0257 16.0606 27.4398L5.12104 16.5003L40.4999 16.5003C41.3291 16.5003 42 15.8294 42 15.0003C42 14.1711 41.3291 13.5002 40.4999 13.5002L5.12104 13.5002L16.0606 2.56071C16.3535 2.26779 16.5 1.88388 16.5 1.50011C16.5 1.11634 16.3535 0.732578 16.0606 0.439516C15.4746 -0.146469 14.5254 -0.146469 13.9395 0.439516L0.439489 13.9398Z" fill="#64503E"/>
</svg>
